<svg width="20" height="20" viewBox="0 0 20 20" fill="none" xmlns="http://www.w3.org/2000/svg">
<path d="M4.16675 5.83334H15.6584C15.8913 5.83335 16.1215 5.88215 16.3344 5.9766C16.5472 6.07104 16.7379 6.20904 16.8941 6.38169C17.0504 6.55434 17.1687 6.75781 17.2415 6.97899C17.3143 7.20017 17.3399 7.43415 17.3167 7.66584L16.8167 12.6658C16.7756 13.0771 16.5832 13.4584 16.2767 13.7357C15.9703 14.0131 15.5717 14.1667 15.1584 14.1667H7.20008C6.81464 14.1668 6.44106 14.0334 6.14295 13.7891C5.84484 13.5447 5.64063 13.2046 5.56508 12.8267L4.16675 5.83334Z" stroke="#6A6A6A" stroke-width="2" stroke-linejoin="round"/>
<path d="M4.16675 5.83333L3.49175 3.13083C3.44661 2.95063 3.34254 2.79067 3.19609 2.67638C3.04963 2.56209 2.86919 2.5 2.68341 2.5H1.66675M6.66675 17.5H8.33341M13.3334 17.5H15.0001" stroke="#6A6A6A" stroke-width="2" stroke-linecap="round" stroke-linejoin="round"/>
</svg>
