<svg width="60" height="60" viewBox="0 0 60 60" fill="none" xmlns="http://www.w3.org/2000/svg">
<path d="M14.1774 10.6425C23.9974 2.59499 38.5099 3.15499 47.6774 12.3225C57.4399 22.085 57.4399 37.915 47.6774 47.6775C37.9149 57.44 22.0849 57.44 12.3224 47.6775C9.32649 44.6856 7.1401 40.9815 5.96856 36.9128C4.79702 32.8441 4.67877 28.5444 5.62491 24.4175L5.81741 23.635L10.6524 24.91C9.45377 29.4656 9.90165 34.2982 11.9171 38.556C13.9326 42.8137 17.3863 46.2234 21.6695 48.1842C25.9527 50.1449 30.7906 50.5308 35.3305 49.2739C39.8705 48.017 43.821 45.1979 46.486 41.3135C49.151 37.4291 50.3593 32.7287 49.898 28.0406C49.4368 23.3526 47.3355 18.9778 43.9646 15.6873C40.5937 12.3967 36.1694 10.4017 31.4716 10.0537C26.7738 9.70566 22.1039 11.0271 18.2849 13.785L17.7324 14.2L20.2749 16.7425L8.78491 19.3925L11.4349 7.90249L14.1749 10.6425H14.1774ZM32.4999 15V20H38.7499V25H24.9999C24.6875 24.9994 24.3863 25.1158 24.1555 25.3263C23.9246 25.5367 23.7809 25.826 23.7527 26.137C23.7245 26.4481 23.8138 26.7585 24.003 27.0071C24.1922 27.2556 24.4675 27.4243 24.7749 27.48L24.9999 27.5H34.9999C36.6575 27.5 38.2472 28.1585 39.4193 29.3306C40.5914 30.5027 41.2499 32.0924 41.2499 33.75C41.2499 35.4076 40.5914 36.9973 39.4193 38.1694C38.2472 39.3415 36.6575 40 34.9999 40H32.4999V45H27.4999V40H21.2499V35H34.9999C35.3123 35.0006 35.6135 34.8842 35.8444 34.6737C36.0752 34.4633 36.2189 34.174 36.2471 33.8629C36.2753 33.5519 36.1861 33.2415 35.9969 32.9929C35.8077 32.7444 35.5323 32.5756 35.2249 32.52L34.9999 32.5H24.9999C23.3423 32.5 21.7526 31.8415 20.5805 30.6694C19.4084 29.4973 18.7499 27.9076 18.7499 26.25C18.7499 24.5924 19.4084 23.0027 20.5805 21.8306C21.7526 20.6585 23.3423 20 24.9999 20H27.4999V15H32.4999Z" fill="#3D5E67"/>
</svg>
