<svg width="60" height="60" viewBox="0 0 60 60" fill="none" xmlns="http://www.w3.org/2000/svg">
<path d="M30 7.5C17.5723 7.5 7.5 17.5723 7.5 30V51.0938C7.5 51.873 8.12695 52.5 8.90625 52.5H19.6875C21.7559 52.5 23.4375 50.8184 23.4375 48.75V36.5625C23.4375 34.4941 21.7559 32.8125 19.6875 32.8125H11.7188V30C11.7188 19.9043 19.9043 11.7188 30 11.7188C40.0957 11.7188 48.2812 19.9043 48.2812 30V32.8125H40.3125C38.2441 32.8125 36.5625 34.4941 36.5625 36.5625V48.75C36.5625 50.8184 38.2441 52.5 40.3125 52.5H51.0938C51.873 52.5 52.5 51.873 52.5 51.0938V30C52.5 17.5723 42.4277 7.5 30 7.5ZM19.2188 37.0312V48.2812H11.7188V37.0312H19.2188ZM48.2812 48.2812H40.7812V37.0312H48.2812V48.2812Z" fill="#3D5E67"/>
</svg>
